Coordinates
version=1
nRows=5
nColumns=63
inDegrees=yes

Units are S.I. units (second, meters, Newtons, ...)
If the header above contains a line with 'inDegrees', this indicates whether rotational values are in degrees (yes) or radians (no).

endheader
time	pelvis_tilt	pelvis_list	pelvis_rotation	pelvis_tx	pelvis_ty	pelvis_tz	hip_flexion_r	hip_adduction_r	hip_rotation_r	knee_angle_r	knee_angle_r_beta	ankle_angle_r	subtalar_angle_r	mtp_angle_r	hip_flexion_l	hip_adduction_l	hip_rotation_l	knee_angle_l	knee_angle_l_beta	ankle_angle_l	subtalar_angle_l	mtp_angle_l	L5_S1_Flex_Ext	L5_S1_Lat_Bending	L5_S1_axial_rotation	L4_L5_Flex_Ext	L4_L5_Lat_Bending	L4_L5_axial_rotation	L3_L4_Flex_Ext	L3_L4_Lat_Bending	L3_L4_axial_rotation	L2_L3_Flex_Ext	L2_L3_Lat_Bending	L2_L3_axial_rotation	L1_L2_Flex_Ext	L1_L2_Lat_Bending	L1_L2_axial_rotation	L1_T12_Flex_Ext	L1_T12_Lat_Bending	L1_T12_axial_rotation	Abs_r3	Abs_r2	Abs_r1	Abs_t1	Abs_t2	neck_flexion	neck_bending	neck_rotation	arm_flex_r	arm_add_r	arm_rot_r	elbow_flex_r	pro_sup_r	wrist_flex_r	wrist_dev_r	arm_flex_l	arm_add_l	arm_rot_l	elbow_flex_l	pro_sup_l	wrist_flex_l	wrist_dev_l
      1.98039216	      2.15220770	     -5.70122723	    103.07961788	      0.03908544	      0.89510129	      0.51455732	      8.07980890	     -0.88426293	    -16.16261977	      8.51446731	      0.14860549	     26.35929599	      7.47492242	      0.00000000	      8.71297465	     -0.62068180	      5.88733665	      8.08949331	      0.14118829	     22.12239146	     -3.84760215	      0.00000000	      0.30370388	      0.19376488	     -1.13513388	      0.56400848	      0.25770729	     -1.20607975	      0.49895511	      0.47111992	     -1.20607975	      0.34710317	      0.47111992	     -0.99324215	      0.28201942	      0.39512534	     -0.92229628	      0.17353640	      0.30014179	     -0.85135041	      2.16932645	      2.19190703	     -6.31327412	      0.00000000	      0.00000000	     27.22719903	      4.67356318	     12.01292432	     15.77632072	     -6.33491610	     61.43585696	     40.79452828	     25.22464364	     -6.53745491	     30.68655944	     14.64540303	     -3.09998994	     51.90229037	     40.21007716	     49.19600669	      3.26153496	     21.73775601
      2.00000000	      2.04994510	     -5.56600627	    103.27363995	      0.03855119	      0.89499573	      0.51467312	      8.07400150	     -1.07138759	    -16.33837256	      8.95590482	      0.15631003	     26.70158683	      7.38852531	      0.00000000	      8.56256433	     -0.44964248	      6.44648853	      8.11074714	      0.14155924	     21.80737025	     -4.63613814	      0.00000000	      0.29549107	      0.17705830	     -1.18747534	      0.54875646	      0.23548753	     -1.26169255	      0.48546228	      0.43049954	     -1.26169255	      0.33771674	      0.43049954	     -1.03904092	      0.27439301	      0.36105728	     -0.96482372	      0.16884360	      0.27426330	     -0.89060651	      2.11066316	      2.00291886	     -6.60438161	      0.00000000	      0.00000000	     27.01411242	      4.98301068	     11.73088281	     16.62224178	     -6.32770167	     63.38523262	     40.49254387	     24.91873716	     -5.83633833	     31.15195746	     14.55324555	     -3.00354082	     48.99141093	     40.28968966	     65.52470959	      7.42023868	     20.66660172
      2.01960784	      1.94927440	     -5.43162908	    103.49188860	      0.03805038	      0.89501987	      0.51458005	      8.04185093	     -1.25036934	    -16.49917220	      9.37032787	      0.16354307	     26.99378215	      7.24222974	      0.00000000	      8.39916112	     -0.30095750	      6.65296763	      8.13953645	      0.14206171	     21.63616818	     -4.95781196	      0.00000000	      0.28987820	      0.15875500	     -1.22247845	      0.53833281	      0.21114416	     -1.29888336	      0.47624090	      0.38599692	     -1.29888336	      0.33130180	      0.38599692	     -1.06966865	      0.26918090	      0.32373320	     -0.99326374	      0.16563641	      0.24591150	     -0.91685884	      2.07057103	      1.79586835	     -6.79905842	      0.00000000	      0.00000000	     26.88869098	      5.06821556	     11.07376252	     17.30720019	     -6.31542736	     64.92272256	     40.35962213	     24.14050361	     -5.68043037	     31.59491902	     14.86297795	     -3.23143527	     47.89327445	     40.77779679	     80.66287983	      9.91410219	     18.08833859
      2.03921569	      1.88309643	     -5.26667058	    103.73751644	      0.03747266	      0.89511477	      0.51425287	      7.94690091	     -1.37247306	    -16.54912174	      9.72230284	      0.16968620	     27.29701342	      7.03744851	      0.00000000	      8.22288799	     -0.20928919	      6.68502083	      8.22852736	      0.14361489	     21.68861896	     -4.87321414	      0.00000000	      0.28113142	      0.14811687	     -1.25045702	      0.52208917	      0.19699544	     -1.32861058	      0.46187082	      0.36013136	     -1.32861058	      0.32130510	      0.36013136	     -1.09414989	      0.26105864	      0.30203992	     -1.01599633	      0.16063850	      0.22943303	     -0.93784276	      2.00809364	      1.67552768	     -6.95466678	      0.00000000	      0.00000000	     26.86550331	      4.92256119	     10.35865112	     17.74172500	     -6.28929097	     65.76092030	     40.43513577	     24.19464172	     -5.98225675	     31.93795893	     15.39552341	     -3.72106451	     49.02563396	     41.56871479	     85.45582062	      8.78090471	     17.46897838
      2.05882353	      1.85630229	     -5.14002036	    103.99159050	      0.03672943	      0.89517258	      0.51380662	      7.90382703	     -1.47993886	    -16.64556877	     10.09416002	      0.17617633	     27.65937931	      6.90211494	      0.00000000	      8.04627285	     -0.13724346	      6.76152613	      8.24050698	      0.14382398	     21.85358067	     -4.77216299	      0.00000000	      0.28132186	      0.14896438	     -1.28676487	      0.52244283	      0.19812262	     -1.36718767	      0.46218368	      0.36219199	     -1.36718767	      0.32152275	      0.36219199	     -1.12591926	      0.26123548	      0.30376816	     -1.04549645	      0.16074731	      0.23074582	     -0.96507365	      2.00945392	      1.68511483	     -7.15660016	      0.00000000	      0.00000000	     26.92968995	      4.69583336	     10.09762841	     18.01726824	     -6.24236900	     66.14743786	     40.57126435	     24.38813685	     -6.62907126	     32.13938136	     15.73747454	     -4.09908505	     49.99028848	     41.92917724	     87.23461793	      7.49888471	     16.11313047
